<mxfile host="app.diagrams.net" agent="Mozilla/5.0 (Windows NT 10.0; Win64; x64) AppleWebKit/537.36 (KHTML, like Gecko) Chrome/130.0.0.0 Safari/537.36" version="24.8.3">
  <diagram name="Página-1" id="HfMecPhkVQRGptfQtgDA">
    <mxGraphModel dx="1434" dy="780" grid="1" gridSize="10" guides="1" tooltips="1" connect="1" arrows="1" fold="1" page="1" pageScale="1" pageWidth="827" pageHeight="1169" math="0" shadow="0">
      <root>
        <mxCell id="0" />
        <mxCell id="1" parent="0" />
        <mxCell id="RUfxBS6912iHv44jZUGQ-15" style="edgeStyle=orthogonalEdgeStyle;rounded=0;orthogonalLoop=1;jettySize=auto;html=1;exitX=0;exitY=0.75;exitDx=0;exitDy=0;entryX=0.75;entryY=0;entryDx=0;entryDy=0;" edge="1" parent="1" source="RUfxBS6912iHv44jZUGQ-1" target="RUfxBS6912iHv44jZUGQ-2">
          <mxGeometry relative="1" as="geometry" />
        </mxCell>
        <mxCell id="RUfxBS6912iHv44jZUGQ-17" style="edgeStyle=orthogonalEdgeStyle;rounded=0;orthogonalLoop=1;jettySize=auto;html=1;exitX=1;exitY=0.75;exitDx=0;exitDy=0;entryX=0.25;entryY=0;entryDx=0;entryDy=0;" edge="1" parent="1" source="RUfxBS6912iHv44jZUGQ-1" target="RUfxBS6912iHv44jZUGQ-11">
          <mxGeometry relative="1" as="geometry" />
        </mxCell>
        <mxCell id="RUfxBS6912iHv44jZUGQ-1" value="Iphone" style="html=1;whiteSpace=wrap;" vertex="1" parent="1">
          <mxGeometry x="340" y="40" width="110" height="50" as="geometry" />
        </mxCell>
        <mxCell id="RUfxBS6912iHv44jZUGQ-2" value="Reprodutor Musical" style="swimlane;fontStyle=1;align=center;verticalAlign=top;childLayout=stackLayout;horizontal=1;startSize=30;horizontalStack=0;resizeParent=1;resizeParentMax=0;resizeLast=0;collapsible=1;marginBottom=0;whiteSpace=wrap;html=1;" vertex="1" parent="1">
          <mxGeometry x="40" y="130" width="220" height="94" as="geometry">
            <mxRectangle x="70" y="130" width="140" height="30" as="alternateBounds" />
          </mxGeometry>
        </mxCell>
        <mxCell id="RUfxBS6912iHv44jZUGQ-3" value="+ tocar ( ) : void" style="text;strokeColor=none;fillColor=none;align=left;verticalAlign=top;spacingLeft=4;spacingRight=4;overflow=hidden;rotatable=0;points=[[0,0.5],[1,0.5]];portConstraint=eastwest;whiteSpace=wrap;html=1;" vertex="1" parent="RUfxBS6912iHv44jZUGQ-2">
          <mxGeometry y="30" width="220" height="26" as="geometry" />
        </mxCell>
        <mxCell id="RUfxBS6912iHv44jZUGQ-4" value="" style="line;strokeWidth=1;fillColor=none;align=left;verticalAlign=middle;spacingTop=-1;spacingLeft=3;spacingRight=3;rotatable=0;labelPosition=right;points=[];portConstraint=eastwest;strokeColor=inherit;" vertex="1" parent="RUfxBS6912iHv44jZUGQ-2">
          <mxGeometry y="56" width="220" height="8" as="geometry" />
        </mxCell>
        <mxCell id="RUfxBS6912iHv44jZUGQ-5" value="+ pausar ( ): void" style="text;strokeColor=none;fillColor=none;align=left;verticalAlign=top;spacingLeft=4;spacingRight=4;overflow=hidden;rotatable=0;points=[[0,0.5],[1,0.5]];portConstraint=eastwest;whiteSpace=wrap;html=1;" vertex="1" parent="RUfxBS6912iHv44jZUGQ-2">
          <mxGeometry y="64" width="220" height="30" as="geometry" />
        </mxCell>
        <mxCell id="RUfxBS6912iHv44jZUGQ-6" value="Aparelho Telefônico" style="swimlane;fontStyle=1;align=center;verticalAlign=top;childLayout=stackLayout;horizontal=1;startSize=26;horizontalStack=0;resizeParent=1;resizeParentMax=0;resizeLast=0;collapsible=1;marginBottom=0;whiteSpace=wrap;html=1;" vertex="1" parent="1">
          <mxGeometry x="300" y="130" width="200" height="90" as="geometry" />
        </mxCell>
        <mxCell id="RUfxBS6912iHv44jZUGQ-7" value="+ ligar (String numero): void" style="text;strokeColor=none;fillColor=none;align=left;verticalAlign=top;spacingLeft=4;spacingRight=4;overflow=hidden;rotatable=0;points=[[0,0.5],[1,0.5]];portConstraint=eastwest;whiteSpace=wrap;html=1;" vertex="1" parent="RUfxBS6912iHv44jZUGQ-6">
          <mxGeometry y="26" width="200" height="26" as="geometry" />
        </mxCell>
        <mxCell id="RUfxBS6912iHv44jZUGQ-8" value="" style="line;strokeWidth=1;fillColor=none;align=left;verticalAlign=middle;spacingTop=-1;spacingLeft=3;spacingRight=3;rotatable=0;labelPosition=right;points=[];portConstraint=eastwest;strokeColor=inherit;" vertex="1" parent="RUfxBS6912iHv44jZUGQ-6">
          <mxGeometry y="52" width="200" height="8" as="geometry" />
        </mxCell>
        <mxCell id="RUfxBS6912iHv44jZUGQ-9" value="+ atender () : void" style="text;strokeColor=none;fillColor=none;align=left;verticalAlign=top;spacingLeft=4;spacingRight=4;overflow=hidden;rotatable=0;points=[[0,0.5],[1,0.5]];portConstraint=eastwest;whiteSpace=wrap;html=1;" vertex="1" parent="RUfxBS6912iHv44jZUGQ-6">
          <mxGeometry y="60" width="200" height="30" as="geometry" />
        </mxCell>
        <mxCell id="RUfxBS6912iHv44jZUGQ-11" value="Navegador na Internet" style="swimlane;fontStyle=1;align=center;verticalAlign=top;childLayout=stackLayout;horizontal=1;startSize=26;horizontalStack=0;resizeParent=1;resizeParentMax=0;resizeLast=0;collapsible=1;marginBottom=0;whiteSpace=wrap;html=1;" vertex="1" parent="1">
          <mxGeometry x="550" y="130" width="220" height="86" as="geometry" />
        </mxCell>
        <mxCell id="RUfxBS6912iHv44jZUGQ-12" value="+ exibirPagina(String url): void" style="text;strokeColor=none;fillColor=none;align=left;verticalAlign=top;spacingLeft=4;spacingRight=4;overflow=hidden;rotatable=0;points=[[0,0.5],[1,0.5]];portConstraint=eastwest;whiteSpace=wrap;html=1;" vertex="1" parent="RUfxBS6912iHv44jZUGQ-11">
          <mxGeometry y="26" width="220" height="26" as="geometry" />
        </mxCell>
        <mxCell id="RUfxBS6912iHv44jZUGQ-13" value="" style="line;strokeWidth=1;fillColor=none;align=left;verticalAlign=middle;spacingTop=-1;spacingLeft=3;spacingRight=3;rotatable=0;labelPosition=right;points=[];portConstraint=eastwest;strokeColor=inherit;" vertex="1" parent="RUfxBS6912iHv44jZUGQ-11">
          <mxGeometry y="52" width="220" height="8" as="geometry" />
        </mxCell>
        <mxCell id="RUfxBS6912iHv44jZUGQ-14" value="+ adicionarNovaAba( ): void" style="text;strokeColor=none;fillColor=none;align=left;verticalAlign=top;spacingLeft=4;spacingRight=4;overflow=hidden;rotatable=0;points=[[0,0.5],[1,0.5]];portConstraint=eastwest;whiteSpace=wrap;html=1;" vertex="1" parent="RUfxBS6912iHv44jZUGQ-11">
          <mxGeometry y="60" width="220" height="26" as="geometry" />
        </mxCell>
        <mxCell id="RUfxBS6912iHv44jZUGQ-16" style="edgeStyle=orthogonalEdgeStyle;rounded=0;orthogonalLoop=1;jettySize=auto;html=1;exitX=0.5;exitY=1;exitDx=0;exitDy=0;entryX=0.463;entryY=-0.012;entryDx=0;entryDy=0;entryPerimeter=0;" edge="1" parent="1" source="RUfxBS6912iHv44jZUGQ-1" target="RUfxBS6912iHv44jZUGQ-6">
          <mxGeometry relative="1" as="geometry" />
        </mxCell>
        <mxCell id="RUfxBS6912iHv44jZUGQ-18" value="+ selecionarMusica (String musica): void" style="text;strokeColor=default;fillColor=none;align=left;verticalAlign=top;spacingLeft=4;spacingRight=4;overflow=hidden;rotatable=0;points=[[0,0.5],[1,0.5]];portConstraint=eastwest;whiteSpace=wrap;html=1;" vertex="1" parent="1">
          <mxGeometry x="40" y="224" width="220" height="46" as="geometry" />
        </mxCell>
        <mxCell id="RUfxBS6912iHv44jZUGQ-24" value="+ iniciarCorreioVoz () : void" style="text;strokeColor=default;fillColor=none;align=left;verticalAlign=top;spacingLeft=4;spacingRight=4;overflow=hidden;rotatable=0;points=[[0,0.5],[1,0.5]];portConstraint=eastwest;whiteSpace=wrap;html=1;" vertex="1" parent="1">
          <mxGeometry x="300" y="220" width="200" height="30" as="geometry" />
        </mxCell>
        <mxCell id="RUfxBS6912iHv44jZUGQ-25" value="+ atualizarNovaPagina( ): void" style="text;strokeColor=default;fillColor=none;align=left;verticalAlign=top;spacingLeft=4;spacingRight=4;overflow=hidden;rotatable=0;points=[[0,0.5],[1,0.5]];portConstraint=eastwest;whiteSpace=wrap;html=1;" vertex="1" parent="1">
          <mxGeometry x="550" y="216" width="220" height="26" as="geometry" />
        </mxCell>
      </root>
    </mxGraphModel>
  </diagram>
</mxfile>
